<?xml version="1.0" encoding="UTF-8"?>
<svg version="1.1" xmlns="http://www.w3.org/2000/svg" width="512" height="512">
<path d="M0 0 C0.99909793 -0.00453111 1.99819585 -0.00906223 3.02756947 -0.01373065 C6.37920024 -0.0264024 9.73066908 -0.02475247 13.08232117 -0.02310181 C15.48384307 -0.02908532 17.88536305 -0.03589046 20.28688049 -0.04345703 C26.13564098 -0.05930484 31.98436344 -0.06556622 37.83314101 -0.06668179 C42.58839406 -0.06763268 47.34363383 -0.07174505 52.09888268 -0.07808304 C65.58651783 -0.09569352 79.07412118 -0.10492226 92.56176791 -0.10342209 C93.28865303 -0.10334218 94.01553814 -0.10326227 94.76445007 -0.10317993 C95.4922247 -0.10309817 96.21999933 -0.10301641 96.96982773 -0.10293217 C108.76233776 -0.10211941 120.55472002 -0.1212551 132.3471931 -0.14945666 C144.46113206 -0.17819796 156.57500874 -0.19199627 168.68898267 -0.19026911 C175.48784258 -0.18960562 182.28656855 -0.19507983 189.08539772 -0.21662521 C195.48021767 -0.23676069 201.87482792 -0.23615054 208.26966476 -0.22159195 C210.61580887 -0.21949935 212.96197056 -0.22423147 215.30808449 -0.23631287 C218.51301425 -0.25174687 221.71696632 -0.2424685 224.921875 -0.22705078 C225.848444 -0.23733791 226.775013 -0.24762503 227.72965986 -0.25822389 C234.75727369 -0.18360903 239.91961284 1.59618544 245.35844421 6.09164429 C245.8882489 6.7065271 246.41805359 7.32140991 246.96391296 7.95492554 C247.50660828 8.55691772 248.04930359 9.15890991 248.60844421 9.77914429 C253.99630782 18.46792687 253.55021827 27.61276924 253.44438171 37.45883179 C253.43996172 38.83964677 253.43690683 40.22046681 253.43522644 41.60128784 C253.41960362 46.67757789 253.37772 51.75375979 253.33891296 56.82992554 C253.27703796 68.19430054 253.21516296 79.55867554 253.15141296 91.26742554 C283.18141296 91.26742554 313.21141296 91.26742554 344.15141296 91.26742554 C364.81416464 136.03672084 364.81416464 136.03672084 370.90141296 149.89242554 C371.85899438 152.06494452 372.8175734 154.23701683 373.77720642 156.40863037 C376.11137226 161.69325547 376.11137226 161.69325547 377.11988831 164.06016541 C378.16042185 166.37459884 378.16042185 166.37459884 379.68122864 168.88471985 C385.39915567 179.34625066 384.9245511 189.2274562 384.73735046 200.88070679 C384.72613791 202.94719705 384.71760748 205.01370343 384.71162415 207.08021545 C384.68888796 212.47771467 384.63009803 217.87422072 384.56340027 223.27133179 C384.50164712 228.79528372 384.47453902 234.31939862 384.44438171 239.84359741 C384.38033787 250.65204317 384.2749394 261.45949578 384.15141296 272.26742554 C376.56141296 272.26742554 368.97141296 272.26742554 361.15141296 272.26742554 C361.15141296 274.90742554 361.15141296 277.54742554 361.15141296 280.26742554 C359.49415162 288.06630243 356.44962518 294.35344047 351.15141296 300.26742554 C350.64996765 300.87199585 350.14852234 301.47656616 349.63188171 302.09945679 C341.44882192 311.2382024 330.1303495 314.62396291 318.27641296 315.57992554 C305.7399093 315.19926247 295.44863777 310.17990877 286.48344421 301.75180054 C278.64167602 293.39775603 275.15141296 283.63403619 275.15141296 272.26742554 C209.81141296 272.26742554 144.47141296 272.26742554 77.15141296 272.26742554 C77.15141296 274.57742554 77.15141296 276.88742554 77.15141296 279.26742554 C75.19935618 290.31195736 68.95934614 300.38068584 60.15141296 307.26742554 C48.56040093 314.47178385 37.12189514 316.78030447 23.77641296 314.14242554 C13.84565839 311.67408769 5.39468317 306.45849286 -0.84858704 298.26742554 C-5.92939575 289.57294086 -8.90717591 282.42258367 -8.84858704 272.26742554 C-9.76559387 272.29360962 -10.68260071 272.3197937 -11.62739563 272.34677124 C-15.07547638 272.43270133 -18.52239699 272.49501084 -21.97114563 272.54208374 C-23.45505382 272.56701391 -24.93884198 272.60097179 -26.4223175 272.6446228 C-36.83459847 272.94301926 -45.25894583 272.41813658 -53.28608704 265.02133179 C-53.80171204 264.29816772 -54.31733704 263.57500366 -54.84858704 262.82992554 C-55.38483704 262.1093396 -55.92108704 261.38875366 -56.47358704 260.64633179 C-63.93435898 247.7383485 -59.07493071 229.9952754 -56.91108704 216.07992554 C-56.62952685 214.20702291 -56.34892214 212.33397639 -56.06929016 210.46078491 C-55.55600742 207.05538539 -55.04197933 203.65014512 -54.51289368 200.24716187 C-54.40852493 199.57292679 -54.30415619 198.89869171 -54.19662476 198.20402527 C-53.83590237 196.19684377 -53.3649501 194.23978567 -52.84858704 192.26742554 C-53.92108704 192.20555054 -54.99358704 192.14367554 -56.09858704 192.07992554 C-59.84858704 191.26742554 -59.84858704 191.26742554 -62.22358704 189.14242554 C-64.19123451 185.66120308 -64.77838814 183.26876279 -64.84858704 179.26742554 C-63.6166879 175.7086058 -62.53114932 173.81726738 -59.59858704 171.45492554 C-56.84858704 170.26742554 -56.84858704 170.26742554 -49.84858704 169.26742554 C-47.86858704 155.73742554 -45.88858704 142.20742554 -43.84858704 128.26742554 C-53.82523283 128.09714761 -53.82523283 128.09714761 -63.80244446 127.96957397 C-65.0487262 127.93895874 -66.29500793 127.90834351 -67.57905579 127.87680054 C-68.85160217 127.85585327 -70.12414856 127.83490601 -71.43525696 127.81332397 C-75.37662955 127.18297499 -77.02450161 126.02702525 -79.84858704 123.26742554 C-82.13712698 119.99808276 -82.32020921 117.19761034 -81.84858704 113.26742554 C-79.71949288 109.31339354 -78.10095156 106.78890565 -73.84858704 105.26742554 C-71.20147102 105.09931451 -68.66427169 105.03436958 -66.02046204 105.07211304 C-64.89695343 105.07635788 -64.89695343 105.07635788 -63.75074768 105.08068848 C-61.36652928 105.09185294 -58.98269124 105.11695023 -56.59858704 105.14242554 C-54.97880081 105.15246018 -53.35900867 105.16158519 -51.73921204 105.16976929 C-47.77552458 105.19177999 -43.81212022 105.22628378 -39.84858704 105.26742554 C-39.72580383 104.17728149 -39.60302063 103.08713745 -39.47651672 101.96395874 C-38.52694585 93.58994377 -37.4649882 85.23736681 -36.28608704 76.89242554 C-36.15935608 75.98339478 -36.03262512 75.07436401 -35.90205383 74.13778687 C-35.77999573 73.28595825 -35.65793762 72.43412964 -35.53218079 71.55648804 C-35.4244635 70.80061401 -35.31674622 70.04473999 -35.20576477 69.26596069 C-34.84858704 67.26742554 -34.84858704 67.26742554 -33.84858704 64.26742554 C-34.58464172 64.30223022 -35.32069641 64.33703491 -36.07905579 64.37289429 C-45.96807495 64.64722639 -45.96807495 64.64722639 -49.84858704 61.26742554 C-52.66583937 57.04154704 -52.64817087 53.23117866 -51.84858704 48.26742554 C-49.65835786 45.44318265 -48.01841497 43.8523395 -44.84858704 42.26742554 C-42.47456203 42.19626172 -40.09858027 42.18333469 -37.72358704 42.20492554 C-36.44225891 42.21394897 -35.16093079 42.22297241 -33.84077454 42.23226929 C-32.35964172 42.24967163 -32.35964172 42.24967163 -30.84858704 42.26742554 C-30.70610535 41.14884155 -30.70610535 41.14884155 -30.56074524 40.00765991 C-30.1140856 36.59131009 -29.63785536 33.17969842 -29.16108704 29.76742554 C-29.01220032 28.59437866 -28.8633136 27.42133179 -28.70991516 26.21273804 C-27.46867457 17.54839197 -25.32912968 10.58881175 -18.34858704 4.89242554 C-17.80202454 4.43094116 -17.25546204 3.96945679 -16.69233704 3.49398804 C-11.28762263 -0.10152112 -6.28527263 -0.02085887 0 0 Z " fill="#F15F5C" transform="translate(93.84858703613281,74.73257446289063)"/>
<path d="M0 0 C30.03 0 60.06 0 91 0 C111.66275168 44.7692953 111.66275168 44.7692953 117.75 58.625 C118.70758141 60.79751898 119.66616043 62.96959129 120.62579346 65.14120483 C122.9599593 70.42582993 122.9599593 70.42582993 123.96847534 72.79273987 C125.00900889 75.1071733 125.00900889 75.1071733 126.52981567 77.61729431 C132.24774271 88.07882513 131.77313814 97.96003067 131.5859375 109.61328125 C131.57472494 111.67977151 131.56619451 113.7462779 131.56021118 115.81278992 C131.537475 121.21028914 131.47868507 126.60679518 131.4119873 132.00390625 C131.35023415 137.52785819 131.32312606 143.05197309 131.29296875 148.57617188 C131.2289249 159.38461763 131.12352644 170.19207024 131 181 C123.41 181 115.82 181 108 181 C108 183.64 108 186.28 108 189 C106.34273866 196.7988769 103.29821222 203.08601494 98 209 C97.49855469 209.60457031 96.99710937 210.20914063 96.48046875 210.83203125 C88.29740896 219.97077686 76.97893653 223.35653738 65.125 224.3125 C52.58849634 223.93183693 42.29722481 218.91248323 33.33203125 210.484375 C25.49026306 202.1303305 22 192.36661065 22 181 C14.74 181 7.48 181 0 181 C0 121.27 0 61.54 0 0 Z " fill="#D7D7D7" transform="translate(347,166)"/>
<path d="M0 0 C1.34111343 0.00539291 1.34111343 0.00539291 2.70932007 0.01089478 C3.64580887 0.01074875 4.58229767 0.01060272 5.54716492 0.01045227 C8.65845007 0.01115179 11.76967617 0.01894602 14.88095093 0.02676392 C17.0318651 0.02862796 19.18277971 0.03005192 21.33369446 0.03105164 C27.00711225 0.03487792 32.68050463 0.04470914 38.35391235 0.05575562 C44.13831234 0.06596736 49.92271641 0.07054875 55.7071228 0.07559204 C67.06585796 0.08633131 78.42457421 0.10340906 89.78329468 0.12442017 C89.87173455 6.25916972 89.71091063 12.24657338 89.00473022 18.34048462 C88.88028534 19.47179558 88.88028534 19.47179558 88.75332642 20.6259613 C88.48150618 23.08058323 88.2013499 25.53415325 87.92001343 27.98770142 C87.72527173 29.71019362 87.53067894 31.43270267 87.33622742 33.15522766 C86.92917455 36.74707945 86.51743392 40.33835906 86.10287476 43.92935181 C85.57306752 48.52560819 85.05956265 53.1235291 84.55005169 57.72207355 C84.15413155 61.27208399 83.74737146 64.82079098 83.33756447 68.36922264 C83.14353663 70.06441758 82.95338928 71.76006146 82.76724815 73.45614052 C82.50619216 75.82400309 82.23001178 78.1896378 81.95004272 80.55532837 C81.87667191 81.25099915 81.80330109 81.94666992 81.72770691 82.66342163 C81.02855172 88.3434734 79.41613858 91.708178 75.10360718 95.44863892 C74.04915405 96.22852173 72.99470093 97.00840454 71.90829468 97.81192017 C70.73364337 98.69059634 69.5591691 99.56950922 68.38485718 100.44863892 C67.48621948 101.11452026 67.48621948 101.11452026 66.56942749 101.79385376 C63.7815672 103.87064963 61.03377842 105.99853156 58.28329468 108.12442017 C57.21188626 108.94890689 56.1402705 109.77312425 55.06845093 110.59707642 C52.78408649 112.35422688 50.50032711 114.11216061 48.21688843 115.87051392 C47.33903687 116.54630493 47.33903687 116.54630493 46.44345093 117.23574829 C44.81572187 118.48884129 43.18817452 119.7421703 41.56063843 120.99551392 C40.64411499 121.69805298 39.72759155 122.40059204 38.78329468 123.12442017 C38.25902893 123.65630447 37.73476318 124.18818878 37.1946106 124.7361908 C33.41317457 126.91321808 29.71160202 126.51679285 25.42489624 126.46499634 C24.47821579 126.46543442 23.53153534 126.4658725 22.5561676 126.46632385 C19.42854149 126.46423462 16.30145209 126.44089689 13.17391968 126.41738892 C11.00487562 126.41179345 8.83582777 126.40752312 6.66677856 126.40452576 C0.95878628 126.39307316 -4.74897688 126.36360219 -10.45687866 126.33041382 C-16.28173727 126.29972201 -22.10663291 126.28602231 -27.93154907 126.27090454 C-39.36003514 126.23873306 -50.78835117 126.18753152 -62.21670532 126.12442017 C-62.25213481 121.81845985 -62.28130201 117.62578327 -61.72940063 113.34951782 C-61.62198547 112.49768417 -61.51457031 111.64585052 -61.40390015 110.76820374 C-61.2854071 109.86739578 -61.16691406 108.96658783 -61.04483032 108.03848267 C-60.92295349 107.07567886 -60.80107666 106.11287506 -60.67550659 105.12089539 C-60.00435394 99.83452173 -59.3090926 94.55138096 -58.6131897 89.26821899 C-57.32975998 79.44802457 -56.09724425 69.66736279 -55.41983032 59.78457642 C-53.6884733 35.89889097 -53.6884733 35.89889097 -47.60244751 30.41348267 C-45.19288994 28.70988546 -42.72317675 27.33998838 -40.06289673 26.06826782 C-37.0661837 24.53622702 -34.57808468 22.41894163 -31.96670532 20.31192017 C-30.92514282 19.51270142 -29.88358032 18.71348267 -28.81045532 17.89004517 C-24.35049809 14.46286605 -19.90820465 11.01296689 -15.46670532 7.56192017 C-14.66716431 6.94147827 -13.86762329 6.32103638 -13.04385376 5.68179321 C-12.30167603 5.10469604 -11.55949829 4.52759888 -10.79483032 3.93301392 C-10.12870728 3.41537476 -9.46258423 2.8977356 -8.77627563 2.3644104 C-5.7340882 -0.05438577 -4.02718477 0.00684192 0 0 Z " fill="#FEDF65" transform="translate(208.21670532226563,132.87557983398438)"/>
<path d="M0 0 C1.34111343 0.00539291 1.34111343 0.00539291 2.70932007 0.01089478 C3.64580887 0.01074875 4.58229767 0.01060272 5.54716492 0.01045227 C8.65845007 0.01115179 11.76967617 0.01894602 14.88095093 0.02676392 C17.0318651 0.02862796 19.18277971 0.03005192 21.33369446 0.03105164 C27.00711225 0.03487792 32.68050463 0.04470914 38.35391235 0.05575562 C44.13831234 0.06596736 49.92271641 0.07054875 55.7071228 0.07559204 C67.06585796 0.08633131 78.42457421 0.10340906 89.78329468 0.12442017 C89.87173455 6.25916972 89.71091063 12.24657338 89.00473022 18.34048462 C88.88028534 19.47179558 88.88028534 19.47179558 88.75332642 20.6259613 C88.48150618 23.08058323 88.2013499 25.53415325 87.92001343 27.98770142 C87.72527173 29.71019362 87.53067894 31.43270267 87.33622742 33.15522766 C86.92917455 36.74707945 86.51743392 40.33835906 86.10287476 43.92935181 C85.57306752 48.52560819 85.05956265 53.1235291 84.55005169 57.72207355 C84.15413155 61.27208399 83.74737146 64.82079098 83.33756447 68.36922264 C83.14353663 70.06441758 82.95338928 71.76006146 82.76724815 73.45614052 C82.50619216 75.82400309 82.23001178 78.1896378 81.95004272 80.55532837 C81.87667191 81.25099915 81.80330109 81.94666992 81.72770691 82.66342163 C81.02855172 88.3434734 79.41613858 91.708178 75.10360718 95.44863892 C74.04915405 96.22852173 72.99470093 97.00840454 71.90829468 97.81192017 C70.73364337 98.69059634 69.5591691 99.56950922 68.38485718 100.44863892 C67.48621948 101.11452026 67.48621948 101.11452026 66.56942749 101.79385376 C63.7815625 103.87065313 61.03393834 105.99873214 58.28329468 108.12442017 C57.21052211 108.94882646 56.13760467 109.77304427 55.06454468 110.59707642 C52.78802854 112.34766247 50.51831342 114.10668442 48.25204468 115.87051392 C47.38096069 116.54630493 47.38096069 116.54630493 46.49227905 117.23574829 C44.8795625 118.48721634 43.26886368 119.7412833 41.65829468 120.99551392 C39.10489164 122.88628111 36.53915384 124.5489198 33.78329468 126.12442017 C34.92950577 108.76817496 36.94353413 91.62142486 39.33700562 74.39639282 C40.25715435 67.65031334 41.01330861 60.88929777 41.78329468 54.12442017 C42.44329468 48.51442017 43.10329468 42.90442017 43.78329468 37.12442017 C12.10329468 37.45442017 -19.57670532 37.78442017 -52.21670532 38.12442017 C-50.93360469 34.27511827 -48.60960684 32.87503799 -45.46670532 30.56192017 C-44.26736703 29.6597353 -43.06815146 28.7573873 -41.86904907 27.85488892 C-41.25658325 27.39775513 -40.64411743 26.94062134 -40.01309204 26.46963501 C-37.33278689 24.46250245 -34.68141267 22.41847806 -32.02920532 20.37442017 C-31.51551392 19.97932251 -31.00182251 19.58422485 -30.4725647 19.17715454 C-25.45958909 15.31963069 -20.46201075 11.44228564 -15.46670532 7.56192017 C-14.66724487 6.94155884 -13.86778442 6.32119751 -13.0440979 5.68203735 C-12.3018396 5.10485962 -11.5595813 4.52768188 -10.79483032 3.93301392 C-10.12870728 3.41537476 -9.46258423 2.8977356 -8.77627563 2.3644104 C-5.7340882 -0.05438577 -4.02718477 0.00684192 0 0 Z " fill="#F2CE61" transform="translate(208.21670532226563,132.87557983398438)"/>
<path d="M0 0 C8.91584458 7.41826131 14.22607511 16.98877658 15.6875 28.5 C15.80658276 29.99888959 15.91093706 31.49902749 16 33 C16.06445312 33.70769531 16.12890625 34.41539062 16.1953125 35.14453125 C16.74703867 45.35146543 12.71442588 54.50520501 6 62 C5.49855469 62.60457031 4.99710937 63.20914063 4.48046875 63.83203125 C-3.70259104 72.97077686 -15.02106347 76.35653738 -26.875 77.3125 C-39.41150366 76.93183693 -49.70277519 71.91248323 -58.66796875 63.484375 C-65.7977676 55.8888104 -69.8252933 46.7917231 -70.09375 36.35546875 C-69.5254995 22.33388778 -65.16333879 10.37270945 -54.6875 0.6875 C-38.38875275 -12.1837702 -16.6547089 -12.31754513 0 0 Z " fill="#50514F" transform="translate(439,313)"/>
<path d="M0 0 C10.67973679 8.44520725 15.61743015 18.6830205 17.2578125 32.07421875 C18.45789401 44.59173565 14.56990503 54.42541093 6.79296875 64.203125 C-1.78177288 73.58007739 -12.92253813 77.3079437 -25.2734375 78.3203125 C-38.3071615 77.87268966 -49.60090717 72.91344905 -58.5703125 63.48828125 C-67.22553411 52.13277356 -69.27300369 40.99890596 -67.78564453 27.12890625 C-66.16308832 16.52983229 -59.66578029 7.03821405 -51.4375 0.38671875 C-35.56096381 -10.68920472 -16.03944097 -11.0473383 0 0 Z " fill="#50514F" transform="translate(153.4609375,311.9921875)"/>
<path d="M0 0 C8.58163906 8.02290129 12.22624602 15.22762044 13.52734375 26.9375 C67.64734375 26.9375 121.76734375 26.9375 177.52734375 26.9375 C177.52734375 31.8875 177.52734375 36.8375 177.52734375 41.9375 C119.44734375 41.9375 61.36734375 41.9375 1.52734375 41.9375 C0.86734375 37.6475 0.20734375 33.3575 -0.47265625 28.9375 C-4.47370134 17.44419319 -10.82376319 9.79143937 -21.47265625 4.0625 C-33.2268722 -1.32484898 -45.32534012 -1.48826634 -57.47265625 2.9375 C-69.00047044 8.6861989 -76.3145221 16.75057814 -80.47265625 28.9375 C-80.90741679 31.21530617 -81.28634137 33.5044653 -81.609375 35.80078125 C-81.85820435 37.5319519 -81.85820435 37.5319519 -82.11206055 39.2980957 C-82.29055542 40.60460083 -82.29055542 40.60460083 -82.47265625 41.9375 C-86.98916734 42.06233978 -91.50472959 42.1524125 -96.02246094 42.2121582 C-97.55486575 42.23709759 -99.08715417 42.27106266 -100.61914062 42.31469727 C-111.17895426 42.60764249 -119.76186331 42.19984926 -127.91015625 34.69140625 C-128.42578125 33.96824219 -128.94140625 33.24507813 -129.47265625 32.5 C-130.00890625 31.77941406 -130.54515625 31.05882812 -131.09765625 30.31640625 C-134.02484016 25.25204544 -134.71609714 20.86610341 -134.59765625 15.0625 C-134.57960937 13.91007812 -134.5615625 12.75765625 -134.54296875 11.5703125 C-134.51976562 10.70148438 -134.4965625 9.83265625 -134.47265625 8.9375 C-133.81265625 8.9375 -133.15265625 8.9375 -132.47265625 8.9375 C-131.97765625 10.113125 -131.48265625 11.28875 -130.97265625 12.5 C-128.10708706 18.22097678 -123.76285997 22.44378788 -117.92578125 25.09375 C-113.00037191 26.29724368 -108.15149515 26.40599402 -103.09765625 26.5625 C-102.07542969 26.60117187 -101.05320313 26.63984375 -100 26.6796875 C-97.49106028 26.77347964 -94.98211861 26.85917879 -92.47265625 26.9375 C-92.40788086 26.06738281 -92.40788086 26.06738281 -92.34179688 25.1796875 C-91.39516502 14.65383602 -86.92090618 6.241348 -79.15234375 -0.96484375 C-54.30935195 -20.41190876 -24.44973147 -20.39408881 0 0 Z " fill="#E25959" transform="translate(168.47265625,305.0625)"/>
<path d="M0 0 C19.14 0 38.28 0 58 0 C67.71532106 20.94866104 77.37382707 41.90597594 86.6953125 63.03222656 C87.00488892 63.733396 87.31446533 64.43456543 87.63342285 65.15698242 C88.23304974 66.51553839 88.83195062 67.87441507 89.43005371 69.23364258 C90.84576119 72.43991529 92.28621716 75.63057487 93.78320312 78.79980469 C94.33427734 79.96672852 94.88535156 81.13365234 95.453125 82.3359375 C95.94458008 83.35993652 96.43603516 84.38393555 96.94238281 85.43896484 C98 88 98 88 98 91 C91.66164879 91.24942586 86.1445595 90.39382886 80 88.875 C78.62013916 88.5361377 78.62013916 88.5361377 77.21240234 88.19042969 C50.07528444 81.30608709 27.73768839 67.38320643 13 43 C5.25326947 29.13473054 1.23311468 16.03049081 0 0 Z " fill="#79CCBC" transform="translate(380,166)"/>
<path d="M0 0 C2.13802973 0.01493952 4.27608703 0.02631844 6.41415405 0.03430176 C12.01423085 0.06470085 17.61262112 0.14315872 23.21203613 0.23193359 C28.93669831 0.31408924 34.66163571 0.35037661 40.38671875 0.390625 C51.59969527 0.47616458 62.81142559 0.61252318 74.0234375 0.78125 C65.26210817 9.60322703 55.32407126 16.88056365 45.36889648 24.28857422 C44.55106689 24.89717285 43.7332373 25.50577148 42.890625 26.1328125 C42.16987793 26.66729004 41.44913086 27.20176758 40.70654297 27.75244141 C38.08113961 29.59404999 38.08113961 29.59404999 36.48506165 31.54353333 C31.24784925 36.84868766 26.31708248 37.43742852 19.18920898 37.57592773 C15.17247884 37.60054081 11.16051825 37.53693146 7.14453125 37.46484375 C5.00506719 37.45177432 2.86558205 37.44181651 0.72608948 37.43482971 C-4.88203632 37.40821034 -10.48887599 37.33953984 -16.09649658 37.26190186 C-21.82782598 37.19006082 -27.55936493 37.15827366 -33.29101562 37.12304688 C-44.52009371 37.04816367 -55.74822081 36.92882339 -66.9765625 36.78125 C-61.5273873 31.2864702 -61.5273873 31.2864702 -58.48046875 29.0546875 C-57.84641113 28.58579102 -57.21235352 28.11689453 -56.55908203 27.63378906 C-55.89247559 27.14620117 -55.22586914 26.65861328 -54.5390625 26.15625 C-49.1720021 22.18129019 -43.84620084 18.16668592 -38.6015625 14.03125 C-38.08021729 13.62052246 -37.55887207 13.20979492 -37.02172852 12.78662109 C-36.50408936 12.37750488 -35.9864502 11.96838867 -35.453125 11.546875 C-34.92641708 11.1500351 -34.39970917 10.75319519 -33.85704041 10.34432983 C-31.90559942 8.80428979 -31.90559942 8.80428979 -30.22216797 6.78863525 C-21.76522956 -1.83851905 -11.21586582 -0.23067939 0 0 Z " fill="#E2BE5D" transform="translate(223.9765625,132.21875)"/>
<path d="M0 0 C1.34015221 0.15582303 2.68758903 0.25044142 4.03515625 0.31640625 C4.76355713 0.35451416 5.49195801 0.39262207 6.24243164 0.43188477 C7.63836548 0.49653931 7.63836548 0.49653931 9.0625 0.5625 C12.011875 0.706875 14.96125 0.85125 18 1 C18 12.55 18 24.1 18 36 C14.225625 36.020625 10.45125 36.04125 6.5625 36.0625 C5.37084229 36.071604 4.17918457 36.08070801 2.95141602 36.09008789 C1.55427368 36.09383423 1.55427368 36.09383423 0.12890625 36.09765625 C-0.82943115 36.10289307 -1.78776855 36.10812988 -2.77514648 36.11352539 C-5 36 -5 36 -6 35 C-6.27419061 33.02403942 -6.51879231 31.0439499 -6.75 29.0625 C-8.44573435 17.88773265 -13.46922269 9.46282178 -22 2 C-32.94350685 -5.05280601 -44.67188309 -7.68389485 -57.5 -5.3125 C-68.99433716 -2.39330326 -77.75773634 3.89705528 -83.875 14 C-88.00160034 21.5498029 -89.03303884 27.29734955 -90 36 C-97.59 36 -105.18 36 -113 36 C-113 31.05 -113 26.1 -113 21 C-108.38 21 -103.76 21 -99 21 C-98.95875 19.576875 -98.9175 18.15375 -98.875 16.6875 C-97.68091874 5.39945186 -90.48650245 -2.97586097 -82 -10 C-55.20234961 -28.90320744 -22.78251854 -22.78251854 0 0 Z " fill="#C8C8C8" transform="translate(460,311)"/>
<path d="M0 0 C3 1 3 1 4.80249023 4.26513672 C5.48204091 5.73167489 6.14987279 7.20367598 6.80859375 8.6796875 C7.17188278 9.47172577 7.53517181 10.26376404 7.9094696 11.07980347 C9.09588645 13.67360065 10.2669918 16.27398961 11.4375 18.875 C12.24585584 20.65299961 13.05494086 22.43066787 13.86474609 24.20800781 C15.88063306 28.64011261 17.88315446 33.07811079 19.88140869 37.51818848 C21.23373101 40.51857754 22.59472892 43.51497312 23.95637512 46.51113892 C25.35267887 49.58773235 26.73912209 52.6686949 28.125 55.75 C28.62700928 56.85972168 29.12901855 57.96944336 29.64624023 59.11279297 C30.09555908 60.12229004 30.54487793 61.13178711 31.0078125 62.171875 C31.39598145 63.0390918 31.78415039 63.90630859 32.18408203 64.79980469 C33 67 33 67 33 70 C26.66164879 70.24942586 21.1445595 69.39382886 15 67.875 C13.62013916 67.5361377 13.62013916 67.5361377 12.21240234 67.19042969 C-2.27448773 63.51528943 -14.45491212 58.1110482 -27 50 C-26.32739369 46.56406532 -24.98050766 43.91798394 -23.26171875 40.87890625 C-22.4102124 39.36574829 -22.4102124 39.36574829 -21.54150391 37.82202148 C-20.92968262 36.74637939 -20.31786133 35.6707373 -19.6875 34.5625 C-19.06536621 33.46043213 -18.44323242 32.35836426 -17.80224609 31.22290039 C-15.87412132 27.81184747 -13.9384537 24.40519243 -12 21 C-11.39397949 19.93491211 -10.78795898 18.86982422 -10.16357422 17.77246094 C-6.78645387 11.8421365 -3.39909886 5.91775373 0 0 Z " fill="#71C1B3" transform="translate(445,187)"/>
<path d="M0 0 C0.78069351 -0.0049649 1.56138702 -0.00992981 2.36573792 -0.01504517 C4.95574823 -0.02968293 7.54569725 -0.03647235 10.13574219 -0.04199219 C11.93454999 -0.04774343 13.73335777 -0.05350117 15.53216553 -0.05926514 C19.30839321 -0.06978048 23.08459957 -0.07561928 26.86083984 -0.07910156 C31.69407947 -0.0845797 36.52703643 -0.10859086 41.36018753 -0.13707352 C45.07829605 -0.15572251 48.79633689 -0.16090676 52.51448822 -0.16243744 C54.29584036 -0.16546067 56.07719141 -0.17347809 57.85849762 -0.18662262 C60.3551004 -0.20372641 62.85101824 -0.20179218 65.34765625 -0.1953125 C66.08035233 -0.20452728 66.8130484 -0.21374207 67.56794739 -0.22323608 C72.2546463 -0.18523814 75.47294353 0.64414168 79.43261719 3.16113281 C82.25258129 7.39107897 82.22492907 11.1933373 81.43261719 16.16113281 C78.9058568 19.50738305 77.39328177 20.84091129 73.43261719 22.16113281 C70.85827127 22.26740139 68.31059659 22.31836966 65.73583984 22.32226562 C64.95339401 22.32723053 64.17094818 22.33219543 63.36479187 22.33731079 C60.77541221 22.35192009 58.1860938 22.35873212 55.59667969 22.36425781 C53.7969055 22.37000999 51.99713133 22.37576772 50.19735718 22.38153076 C46.42290969 22.39203704 42.64848349 22.39788224 38.87402344 22.40136719 C34.03959346 22.40685312 29.20544496 22.4308848 24.37110329 22.45933914 C20.65303731 22.47796978 16.9350391 22.48317133 13.21693039 22.48470306 C11.43475174 22.48772883 9.65257426 22.49575481 7.87044144 22.50888824 C5.37613798 22.52595885 2.8825219 22.52406627 0.38818359 22.51757812 C-0.34653671 22.52679291 -1.08125702 22.53600769 -1.83824158 22.54550171 C-6.26032132 22.50950141 -9.06518088 21.90199523 -12.56738281 19.16113281 C-15.38463514 14.93525432 -15.36696665 11.12488593 -14.56738281 6.16113281 C-10.14598235 0.45985327 -6.83017867 0.01030676 0 0 Z " fill="#FEDC65" transform="translate(56.5673828125,116.8388671875)"/>
<path d="M0 0 C0.99591408 -0.0076664 0.99591408 -0.0076664 2.01194763 -0.01548767 C4.20157955 -0.0293602 6.39089582 -0.0284285 8.58056641 -0.02612305 C10.10747392 -0.03001173 11.63438036 -0.03434675 13.1612854 -0.03910828 C16.36065172 -0.04656578 19.55990769 -0.04628298 22.75927734 -0.04101562 C26.85040797 -0.03522643 30.94108506 -0.0521406 35.03214073 -0.0753603 C38.18580752 -0.0901254 41.33936584 -0.0909655 44.49306107 -0.08785057 C46.00088015 -0.08836255 47.5087055 -0.09357709 49.01649094 -0.10366249 C51.12977903 -0.11606181 53.24219362 -0.109215 55.35546875 -0.09765625 C57.1560524 -0.09860039 57.1560524 -0.09860039 58.99301147 -0.0995636 C63.74875403 0.43744289 67.14674109 1.84351323 70.18212891 5.5871582 C71.52600218 8.79752214 71.73869491 10.82213016 71.30712891 14.2746582 C69.34635958 18.95871825 66.91216872 20.3606878 62.30712891 22.2746582 C58.96177673 22.66233826 58.96177673 22.66233826 55.27954102 22.67871094 C54.26614906 22.68900581 54.26614906 22.68900581 53.23228455 22.69950867 C51.0161289 22.71769657 48.80068635 22.71395208 46.58447266 22.70825195 C45.0356066 22.71281663 43.48674258 22.71812306 41.93788147 22.72413635 C38.69914495 22.7330509 35.46065526 22.73066219 32.22192383 22.72070312 C28.07679966 22.70919709 23.93252534 22.72945747 19.78751278 22.75862026 C16.59182858 22.7769838 13.39634819 22.77668988 10.20062447 22.77098274 C8.67243823 22.77082964 7.14423808 22.77686468 5.61610222 22.78927422 C3.47863528 22.8041919 1.34274075 22.79350538 -0.79467773 22.77636719 C-2.00901993 22.77620102 -3.22336212 22.77603485 -4.47450256 22.77586365 C-8.30536787 22.17927238 -9.938884 20.94533856 -12.69287109 18.2746582 C-14.98141104 15.00531543 -15.16449327 12.20484301 -14.69287109 8.2746582 C-10.91215098 1.25332084 -7.75479903 0.02980435 0 0 Z " fill="#FEDD65" transform="translate(26.69287109375,179.725341796875)"/>
<path d="M0 0 C4.2903403 3.15791142 7.8454184 7.37133189 9.8203125 12.33984375 C10.72531531 19.54176085 10.68901102 25.81596595 6.2421875 31.76171875 C2.26169182 36.17963154 -2.48764382 39.82481917 -8.50390625 40.6640625 C-14.56367012 40.93317912 -19.25519618 39.96452298 -24.1796875 36.33984375 C-28.35972619 32.33629558 -31.81311304 28.2570047 -32.55078125 22.38671875 C-32.69992514 14.98216316 -32.24639892 9.93710086 -27.1796875 4.33984375 C-19.63659589 -3.36121837 -9.57917115 -5.44888076 0 0 Z " fill="#D5D5D5" transform="translate(139.1796875,327.66015625)"/>
<path d="M0 0 C5.2639909 2.98506801 9.89039766 7.73369298 11.8125 13.5 C12.48250408 20.91397958 12.45726115 27.41563452 7.8125 33.5 C2.87545205 38.74122626 -1.68498387 41.50167854 -8.9375 41.9375 C-14.64297755 41.793165 -18.73945984 40.03975715 -23.1875 36.5 C-29.14658267 30.17786398 -30.63787999 24.91103742 -30.5234375 16.31640625 C-29.86969528 10.83561393 -27.22934175 7.31938429 -23.1796875 3.7109375 C-16.22073679 -1.70728611 -8.42026132 -3.7332018 0 0 Z " fill="#D6D6D6" transform="translate(421.1875,326.5)"/>
<path d="M0 0 C0.84717087 -0.00807175 1.69434174 -0.01614349 2.56718445 -0.02445984 C4.36011721 -0.03828565 6.15307613 -0.04901453 7.94604492 -0.05688477 C10.67873381 -0.07408978 13.41021001 -0.11798724 16.14257812 -0.16210938 C17.88670988 -0.17223762 19.63085189 -0.18075331 21.375 -0.1875 C22.18769852 -0.20500809 23.00039703 -0.22251617 23.83772278 -0.24055481 C29.15575598 -0.22036692 32.18089745 0.69060906 36.38671875 4.23828125 C38.88976253 7.99284692 38.83951949 9.78574059 38.38671875 14.23828125 C36.28064261 18.22478252 34.65494205 20.72891969 30.38671875 22.23828125 C27.43894356 22.4430005 24.58835028 22.54235186 21.640625 22.5390625 C20.79249741 22.54334763 19.94436981 22.54763275 19.07054138 22.55204773 C17.27937715 22.5577826 15.48818963 22.5582975 13.69702148 22.55395508 C10.96232209 22.55079638 8.22870624 22.5742597 5.49414062 22.59960938 C3.75130344 22.60188265 2.00846336 22.60258574 0.265625 22.6015625 C-0.54909775 22.61077225 -1.3638205 22.61998199 -2.20323181 22.62947083 C-6.82872089 22.59193282 -9.86127483 22.23873152 -13.61328125 19.23828125 C-15.95812018 15.79918415 -16.62408906 13.85432615 -16.55078125 9.67578125 C-15.52675164 5.921006 -14.35107015 3.97607015 -11.61328125 1.23828125 C-7.73971129 -0.05290874 -4.03977342 0.03644673 0 0 Z " fill="#FEDD65" transform="translate(45.61328125,244.76171875)"/>
<path d="M0 0 C2.866875 0.12375 5.73375 0.2475 8.6875 0.375 C8.6875 8.955 8.6875 17.535 8.6875 26.375 C4.35625 26.49875 4.35625 26.49875 -0.0625 26.625 C-0.96581055 26.66141602 -1.86912109 26.69783203 -2.79980469 26.73535156 C-8.70404169 26.81717157 -8.70404169 26.81717157 -11.828125 24.546875 C-14.38711546 20.80266791 -14.55445193 17.49914152 -14.6875 13.0625 C-14.73648437 11.95261719 -14.78546875 10.84273438 -14.8359375 9.69921875 C-14.29252222 6.24812619 -13.39702487 4.08423792 -10.99707031 1.50219727 C-7.63203219 -0.74945216 -3.89310549 -0.23781652 0 0 Z " fill="#FEDF67" transform="translate(469.3125,285.625)"/>
<path d="M0 0 C0.99 0.495 0.99 0.495 2 1 C3.3734635 1.15004973 4.7528526 1.24838006 6.1328125 1.31640625 C6.85871582 1.35451416 7.58461914 1.39262207 8.33251953 1.43188477 C9.71479736 1.49653931 9.71479736 1.49653931 11.125 1.5625 C15.518125 1.7790625 15.518125 1.7790625 20 2 C20 8.6 20 15.2 20 22 C16.04 22 12.08 22 8 22 C7.773125 20.535625 7.54625 19.07125 7.3125 17.5625 C6.36986871 12.75371429 4.66566178 9.07056274 2.12109375 4.91015625 C1 3 1 3 0 0 Z " fill="#D7D7D7" transform="translate(458,310)"/>
</svg>
